<?xml version="1.0" encoding="utf-8"?>
<!-- Generator: Adobe Illustrator 23.0.3, SVG Export Plug-In . SVG Version: 6.00 Build 0)  -->
<svg version="1.1" id="Layer_3" xmlns="http://www.w3.org/2000/svg" xmlns:xlink="http://www.w3.org/1999/xlink" x="0px" y="0px"
	 viewBox="0 0 1488.49 627.5" style="enable-background:new 0 0 1488.49 627.5;" xml:space="preserve">
<style type="text/css">
	.st0{clip-path:url(#SVGID_2_);}
	.st1{clip-path:url(#SVGID_4_);fill:#F4E00D;}
	.st2{clip-path:url(#SVGID_4_);fill:#FEFEFB;}
	.st3{fill:#54C334;}
</style>
<g>
	<g>
		<g>
			<defs>
				<rect id="SVGID_1_" x="556" y="147.36" width="180" height="180"/>
			</defs>
			<clipPath id="SVGID_2_">
				<use xlink:href="#SVGID_1_"  style="overflow:visible;"/>
			</clipPath>
			<g class="st0">
				<defs>
					<rect id="SVGID_3_" x="556" y="147.36" width="180" height="180"/>
				</defs>
				<clipPath id="SVGID_4_">
					<use xlink:href="#SVGID_3_"  style="overflow:visible;"/>
				</clipPath>
				<path class="st1" d="M643.07,147.36h5.01c0.31,0.63,0.9,0.34,1.36,0.39c2.49,0.24,4.99,0.36,7.47,0.69
					c25.04,3.31,45.28,15.05,60.63,35.01c11.52,14.99,17.32,32.13,18.15,50.97c0,2.18,0,4.37,0,6.55
					c-0.29,5.19-0.92,10.34-1.99,15.43c-10.42,49.66-61.79,81.14-110.91,67.94c-45.52-12.23-73.53-56.35-65.39-103
					c6.89-39.52,40.38-70,80.45-73.32C639.59,147.88,641.41,148.18,643.07,147.36 M715.78,237.38c0.47-37.4-30.74-69.02-68.37-69.75
					c-39.11-0.75-70.99,30.29-71.5,68.49c-0.52,39.09,29.89,70.65,68.51,71.19C684.18,307.87,715.28,277.39,715.78,237.38"/>
				<path class="st2" d="M735.69,234.42c0.1,0,0.2,0,0.31,0v6.55l-0.15,0l-0.15,0C735.69,238.79,735.69,236.6,735.69,234.42"/>
				<path class="st1" d="M673.64,186.17c2.17,0,4.01,0.57,5.75,1.41c7.3,3.53,12.75,8.96,16.27,16.27c0.55,1.15,0.97,2.38,1.26,3.62
					c0.88,3.8,0.02,5.86-3.37,7.65c-10.72,5.68-21.88,10.4-33,15.19c-2.44,1.05-4.85,0.72-6.74-1.28c-1.99-2.12-2.03-4.67-0.91-7.18
					c2.63-5.84,5.34-11.65,8.08-17.44c2.36-4.98,4.86-9.89,7.19-14.88C669.32,187.06,671.19,186.02,673.64,186.17"/>
				<path class="st1" d="M673.61,288.85c-2.4,0.03-4-1.1-5.12-3.16c-4.44-8.18-8.07-16.73-11.9-25.19
					c-1.14-2.51-2.23-5.04-3.31-7.57c-1.08-2.53-1.22-5.03,0.86-7.15c2.1-2.14,4.75-2.37,7.31-1.21
					c11.09,5.04,22.18,10.08,33.03,15.63c1.82,0.93,2.55,2.41,2.74,4.31c0.12,1.17,0.04,2.34-0.34,3.43
					c-3.6,10.2-10.48,17.12-20.81,20.52C675.29,288.72,674.43,288.73,673.61,288.85"/>
				<path class="st1" d="M616.9,288.84c-1.11-0.02-2.96-0.57-4.7-1.42c-7.42-3.63-12.92-9.16-16.41-16.65
					c-0.38-0.81-0.67-1.67-0.89-2.53c-1.16-4.48-0.33-6.53,3.75-8.65c10.36-5.39,21.09-9.99,31.81-14.62
					c2.58-1.11,5.21-0.99,7.3,1.21c2.01,2.13,2.05,4.69,0.91,7.18c-4.99,10.89-9.94,21.81-15.44,32.47
					C622.01,288.18,620.51,288.96,616.9,288.84"/>
				<path class="st1" d="M617.88,186.2c2.58-0.16,4.22,1.15,5.38,3.32c4.3,8.03,7.9,16.38,11.63,24.68c1.15,2.57,2.3,5.15,3.37,7.75
					c1.08,2.66,1.15,5.28-0.97,7.53c-1.78,1.88-4.49,2.17-7.51,0.8c-10.61-4.85-21.18-9.78-31.65-14.92
					c-3.99-1.96-4.08-4.62-3.52-7.58c1.66-8.88,12.63-19.67,21.56-21.4C616.73,186.27,617.31,186.25,617.88,186.2"/>
				<path class="st1" d="M707.03,236.83c-0.13,5.02-0.58,9.14-2.24,13.04c-0.4,0.94-0.86,1.87-1.41,2.72
					c-2,3.13-4.17,3.96-7.68,2.85c-10.03-3.17-19.79-7.06-29.61-10.81c-1.5-0.57-3.01-1.11-4.44-1.83
					c-2.27-1.13-3.86-2.92-3.79-5.56c0.07-2.66,1.77-4.34,4.17-5.24c11.27-4.26,22.54-8.49,34.02-12.16
					c2.97-0.95,4.99-0.25,6.9,2.26c2.29,3,3.19,6.54,3.69,10.18C706.88,234.06,707.13,235.85,707.03,236.83"/>
				<path class="st1" d="M664.31,185.59c-0.15,0.56-0.35,1.49-0.64,2.4c-3.61,11.16-7.95,22.05-12.2,32.97
					c-0.21,0.53-0.47,1.06-0.8,1.53c-1.36,1.97-3.18,3.25-5.66,2.98c-2.4-0.27-3.89-1.81-4.7-4.03c-2.83-7.69-5.68-15.38-8.46-23.09
					c-1.32-3.67-2.56-7.38-3.74-11.11c-0.91-2.88-0.22-4.89,2.2-6.74c2.83-2.17,6.15-3.17,9.61-3.62
					c5.78-0.76,11.53-0.66,17.12,1.27c1.83,0.63,3.57,1.46,5.04,2.74C663.39,182.01,664.29,183.38,664.31,185.59"/>
				<path class="st1" d="M584.73,237.13c-0.07-3.8,0.47-7.84,2-11.72c0.67-1.68,1.5-3.27,2.8-4.56c1.56-1.55,3.33-2.22,5.59-1.52
					c9.99,3.08,19.69,6.98,29.45,10.68c1.62,0.61,3.25,1.21,4.82,1.92c2.77,1.24,4.48,3.65,4.28,6.06
					c-0.23,2.87-2.07,4.36-4.62,5.29c-10.96,4-21.84,8.2-32.97,11.69c-3.84,1.21-5.92,0.38-8.1-3.06
					C585.84,248.54,584.72,243.55,584.73,237.13"/>
				<path class="st1" d="M647.29,298.57c-5.7,0.01-9.84-0.46-13.75-2.11c-1.12-0.47-2.22-1.04-3.21-1.73
					c-2.83-1.97-3.51-3.99-2.47-7.31c2.69-8.64,6.02-17.04,9.22-25.49c0.84-2.22,1.69-4.43,2.56-6.64c0.33-0.83,0.68-1.67,1.15-2.43
					c1.28-2.02,3.02-3.33,5.55-3.15c2.46,0.18,4,1.65,4.89,3.8c1.01,2.42,1.91,4.9,2.81,7.36c3.16,8.67,6.45,17.3,9.2,26.11
					c1.29,4.13,0.45,6.31-3.33,8.48C655.55,297.98,650.73,298.55,647.29,298.57"/>
			</g>
		</g>
	</g>
	<g>
		<path class="st3" d="M655.69,77.1h8.6V22.9h-15.7v7.5h-7.9V15h55.3v15.4h-7.9v-7.5h-15.5v54.2h7.3V85h-24.2V77.1z"/>
		<path class="st3" d="M748.99,15h24.2v7.9h-7.9v54.2h7.9V85h-24.2v-7.9h8V53.7h-37.8v23.4h8V85h-24.2v-7.9h7.9V22.9h-7.9V15h24.2
			v7.9h-8v22.9h37.8V22.9h-8V15z"/>
		<path class="st3" d="M780.19,77.1h5.6V22.9h-5.6V15h48.7v15.4h-7.9v-7.5h-26.9v22.9h30.9v7.9h-30.9v23.4h28.3v-7.5h7.9V85h-50.1
			V77.1z"/>
		<path class="st3" d="M34.25,305.25h14v-135.5h-14V150h55.5v19.75H69v135.5h70.75V286.5h19.75V325H34.25V305.25z"/>
		<path class="st3" d="M174.5,305.25h14v-135.5h-14V150h121.75v38.5H276.5v-18.75h-67.25V227h77.25v19.75h-77.25v58.5H280V286.5
			h19.75V325H174.5V305.25z"/>
		<path class="st3" d="M513.5,150h28v19.75h-21.75v135.5h21.75V325H481v-19.75h18V207.5c0.16-1.33,0.29-2.66,0.38-4
			c0.08-1.33,0.21-2.66,0.38-4c-1.34,1.84-2.67,3.75-4.01,5.75s-2.67,3.92-4.01,5.75c-10.02,14.17-20.49,28.04-31.43,41.62
			c-10.94,13.59-21.66,27.29-32.18,41.12l-66.88-87.5l-4.49-6.75c0.16,1.34,0.29,2.67,0.38,4c0.08,1.34,0.21,2.67,0.38,4v97.75h18
			V325H315v-19.75h21.75v-135.5H315V150h28c14.31,18.5,28.5,36.96,42.56,55.38c14.06,18.42,28.25,36.88,42.56,55.38
			c14.35-18.5,28.58-36.96,42.69-55.38C484.91,186.96,499.14,168.5,513.5,150z"/>
		<path class="st3" d="M750.24,305.25h21.75v-135.5h-21.75V150h29l120.75,130.75l4.75,6.5l-0.75-8v-109.5h-18V150h60.5v19.75h-21.75
			V333l-128-136l-4.75-6.5l0.75,8v106.75h18V325h-60.5V305.25z"/>
		<path class="st3" d="M961.74,305.25h20.38c11.5-27.5,23.04-54.71,34.62-81.62c11.58-26.91,23.12-54.12,34.62-81.62
			c11.5,27.5,23.04,54.71,34.62,81.62c11.58,26.92,23.12,54.12,34.62,81.62h20.62V325h-55.25v-19.75h13.88
			c-3.52-8.33-7-16.58-10.43-24.75c-3.43-8.16-6.91-16.41-10.43-24.75h-55.14l-21,49.5h14.38V325h-55.5V305.25z M1053.63,196.25
			l-2.51-8.25c-0.17,0.34-0.34,0.92-0.5,1.75c-0.17,0.84-0.42,1.75-0.75,2.75c-0.34,1.17-0.75,2.42-1.25,3.75
			c-2.17,4.84-4.17,9.59-6,14.25c-1.67,4-3.42,8.34-5.25,13c-1.84,4.67-3.5,8.84-5,12.5h38.1L1053.63,196.25z"/>
		<path class="st3" d="M1155.99,304.75h11.75v-135h-11.75V150h52.5c12,0,23.33,2.04,34,6.12c10.66,4.09,20,9.96,28,17.62
			c8,7.67,14.33,16.88,19,27.62c4.66,10.75,7,22.88,7,36.38c0,9.84-1.71,19.92-5.12,30.25c-3.42,10.34-8.96,19.71-16.62,28.12
			c-7.67,8.42-17.62,15.34-29.88,20.75c-12.25,5.42-27.21,8.12-44.88,8.12h-44V304.75z M1188.49,169.75v135h17.5
			c9.83,0,19-1.58,27.5-4.74c8.5-3.16,15.88-7.69,22.12-13.6s11.16-12.98,14.75-21.21c3.58-8.23,5.38-17.51,5.38-27.82
			c0-10.31-1.79-19.63-5.38-27.95c-3.59-8.32-8.5-15.43-14.75-21.33s-13.62-10.44-22.12-13.6c-8.5-3.16-17.67-4.74-27.5-4.74
			H1188.49z"/>
		<path class="st3" d="M1311.49,305.25h14v-135.5h-14V150h121.75v38.5h-19.75v-18.75h-67.25V227h77.25v19.75h-77.25v58.5h70.75
			V286.5h19.75V325h-125.25V305.25z"/>
		<path class="st3" d="M33.75,545.25H45v-135.5H33.75V390h52.5c5.66,0,11.96,0.88,18.88,2.62c6.91,1.75,13.38,4.54,19.38,8.38
			c6,3.84,11,8.75,15,14.75s6,13.25,6,21.75c0,15.17-4.5,27.21-13.5,36.12c-9,8.92-22,13.38-39,13.38H65.75v58.25h28.5V565h-60.5
			V545.25z M65.75,466.75H87.5c7.33,0,13.38-0.95,18.12-2.86c4.75-1.91,8.54-4.27,11.38-7.09c2.83-2.82,4.83-5.97,6-9.46
			c1.16-3.48,1.75-6.8,1.75-9.96c0-3.65-0.96-7.13-2.88-10.45c-1.92-3.32-4.5-6.27-7.75-8.84s-7.17-4.61-11.75-6.1
			c-4.59-1.49-9.46-2.24-14.62-2.24h-22V466.75z"/>
		<path class="st3" d="M228,545.25h11.25v-135.5H228V390h52.5c5.66,0,11.96,0.88,18.88,2.62c6.91,1.75,13.38,4.54,19.38,8.38
			c6,3.84,11,8.75,15,14.75s6,13.25,6,21.75c0,12.5-3.12,22.96-9.38,31.38c-6.25,8.42-15.38,13.96-27.38,16.62l28,59.75h23.5V565
			H318l-36.75-78H270.5H260v58.25h28.5V565H228V545.25z M260,466.75h21.75c7.33,0,13.38-0.95,18.12-2.86
			c4.75-1.91,8.54-4.27,11.38-7.09c2.83-2.82,4.83-5.97,6-9.46c1.16-3.48,1.75-6.8,1.75-9.96c0-3.65-0.96-7.13-2.88-10.45
			c-1.92-3.32-4.5-6.27-7.75-8.84s-7.17-4.61-11.75-6.1c-4.59-1.49-9.46-2.24-14.62-2.24h-22V466.75z"/>
		<path class="st3" d="M437,477.75c0-12.16,2.33-23.71,7-34.62c4.66-10.91,11.04-20.46,19.12-28.62
			c8.08-8.16,17.54-14.62,28.38-19.38c10.83-4.75,22.41-7.12,34.75-7.12c12.16,0,23.71,2.38,34.62,7.12
			c10.91,4.75,20.46,11.21,28.62,19.38c8.16,8.17,14.62,17.71,19.38,28.62c4.75,10.92,7.12,22.46,7.12,34.62
			c0,12.34-2.38,23.92-7.12,34.75c-4.75,10.84-11.21,20.29-19.38,28.38c-8.17,8.09-17.71,14.46-28.62,19.12
			c-10.92,4.67-22.46,7-34.62,7c-12.34,0-23.92-2.33-34.75-7c-10.84-4.66-20.29-11.04-28.38-19.12
			c-8.09-8.08-14.46-17.54-19.12-28.38C439.33,501.67,437,490.09,437,477.75z M457.75,477.62c0,9.62,1.79,18.61,5.38,26.98
			c3.58,8.37,8.5,15.66,14.75,21.88c6.25,6.22,13.54,11.15,21.88,14.8c8.33,3.65,17.25,5.47,26.75,5.47s18.41-1.82,26.75-5.47
			c8.33-3.65,15.62-8.58,21.88-14.8c6.25-6.21,11.16-13.51,14.75-21.88c3.58-8.37,5.38-17.36,5.38-26.98
			c0-9.61-1.79-18.61-5.38-26.98c-3.59-8.37-8.5-15.71-14.75-22.01c-6.25-6.3-13.54-11.27-21.88-14.92
			c-8.34-3.65-17.25-5.47-26.75-5.47s-18.42,1.82-26.75,5.47c-8.34,3.65-15.62,8.62-21.88,14.92c-6.25,6.3-11.17,13.64-14.75,22.01
			C459.54,459.02,457.75,468.01,457.75,477.62z"/>
		<path class="st3" d="M698.5,390h60.25v152.5c0,9.34-1.54,17.59-4.62,24.75c-3.09,7.16-7.29,13.21-12.62,18.12
			c-5.34,4.91-11.71,8.71-19.12,11.38c-7.42,2.66-15.38,4.08-23.88,4.25v-19.75c11.5-0.67,20.96-4.34,28.38-11
			c7.41-6.66,11.12-16.16,11.12-28.5v-132h-39.5V390z"/>
		<path class="st3" d="M868.74,545.25h14v-135.5h-14V390h121.75v38.5h-19.75v-18.75h-67.25V467h77.25v19.75h-77.25v58.5h70.75V526.5
			h19.75V565H868.74V545.25z"/>
		<path class="st3" d="M1194.24,428.5v-15.25c-8.34-3.66-17-5.5-26-5.5c-9.5,0-18.38,1.84-26.62,5.5
			c-8.25,3.67-15.5,8.71-21.75,15.12c-6.25,6.42-11.17,13.88-14.75,22.38c-3.59,8.5-5.38,17.5-5.38,27s1.79,18.5,5.38,27
			c3.58,8.5,8.5,15.88,14.75,22.12s13.5,11.21,21.75,14.88c8.25,3.67,17.12,5.5,26.62,5.5c12.33,0,23.75-3.08,34.25-9.25l11.25,16.5
			c-6.67,3.84-13.79,6.88-21.38,9.12c-7.59,2.25-15.62,3.38-24.12,3.38c-12.34,0-23.92-2.33-34.75-7
			c-10.84-4.66-20.29-11.04-28.38-19.12c-8.08-8.08-14.46-17.54-19.12-28.38c-4.67-10.83-7-22.41-7-34.75
			c0-12.33,2.33-23.96,7-34.88c4.66-10.91,11.04-20.41,19.12-28.5c8.08-8.08,17.54-14.5,28.38-19.25
			c10.83-4.75,22.41-7.12,34.75-7.12c8.5,0,16.54,1.09,24.12,3.25c7.58,2.17,14.79,5.25,21.62,9.25v28H1194.24z"/>
		<path class="st3" d="M1336.49,545.25h21.5v-135.5h-39.25v18.75h-19.75V390h138.25v38.5h-19.75v-18.75h-38.75v135.5h18.25V565
			h-60.5V545.25z"/>
	</g>
</g>
</svg>
